<svg xmlns="http://www.w3.org/2000/svg" viewBox="0 0 522 284" preserveAspectRatio="xMidYMid slice"><g transform="matrix(1 0 0 1 127.2 0)"><path d="M0.5 4.3C0.9 3.8 1.5 4 1.1 1.6C-0.2 -2.3 1.5 2.3 1.3 1.6C1.1 2.8 0.4 2.2 0 2.2C0.1 2.7 0.3 3.5 0.5 4.3Z" fill="#1a1a1a" fill-rule="evenodd"/></g><g transform="matrix(1 0 0 1 28.1 227)"><path d="M17.7 15.3C14.8 10.3 12.3 4.9 9.9 0C8.7 2 5 23.4 0 57L10.9 57C14.2 32.3 16.6 17 17.7 15.3Z" fill="#1a1a1a" fill-rule="evenodd"/></g><g transform="matrix(1 0 0 1 17.9 215.7)"><path d="M18.6 12.3C16.2 7.7 14 3.3 11.7 0C10.5 1.8 6.1 28.1 0 68.3L9.8 68.3C14.2 35.3 17.4 14.2 18.6 12.3Z" fill="#1a1a1a" fill-rule="evenodd"/></g><g transform="matrix(1 0 0 1 9.2 206.1)"><path d="M19.3 8.3C17.2 5.4 15.3 2.6 13.4 0C11.1 13.1 8.8 26.1 6.6 38.9C4.4 52 2.2 65 0 77.8L0.1 77.9L9 77.9C12.3 55 15.8 31.7 19.3 8.3L19.3 8.3Z" fill="#1a1a1a" fill-rule="evenodd"/></g><g transform="matrix(1 0 0 1 0 197.4)"><path d="M21.8 7.4C20.1 4.7 18.5 2.3 17 0C14 14.4 11.1 28.6 8.3 42.6C5.5 56.7 2.7 70.7 0 84.4L0 84.9C2.5 85.4 5.2 85.9 7.9 86.3C10.1 73.4 12.4 60.2 14.7 46.9C17 33.9 19.5 20.7 21.8 7.4Z" fill="#1a1a1a" fill-rule="evenodd"/></g><g transform="matrix(1 0 0 1 0 189.7)"><path d="M16.2 6.7C14.7 4.5 13.6 2.3 12.6 0C9 15.5 5.4 30.8 2.1 45.9L0 55.4L0 86.1C2.4 74.1 4.8 62 7.3 49.7C10.2 35.6 13.2 21.2 16.2 6.7L16.2 6.7Z" fill="#1a1a1a" fill-rule="evenodd"/></g><g transform="matrix(1 0 0 1 0 183)"><path d="M11.8 5.8C10.6 3.9 9.5 2 8.5 0C5.7 11.6 2.8 23.1 0 34.5L0 57.5L1.2 52.1C4.6 37 8.2 21.5 11.8 5.8L11.8 5.8Z" fill="#1a1a1a" fill-rule="evenodd"/></g><g transform="matrix(1 0 0 1 0 176.8)"><path d="M8 5.4C7 3.8 6.3 1.9 5.7 0C3.8 7.2 1.9 14.3 0 21.3L0 37.4C2.6 26.9 5.3 16.2 8 5.4L8 5.4Z" fill="#1a1a1a" fill-rule="evenodd"/></g><g transform="matrix(1 0 0 1 0 171.3)"><path d="M5 4.9C4.3 3.3 3.7 1.6 3.3 0L0 11.7L0 23.6C1.6 17.4 3.3 11.2 5 4.9Z" fill="#1a1a1a" fill-rule="evenodd"/></g><g transform="matrix(1 0 0 1 0 165.6)"><path d="M3 4.4C2.5 2.9 2.1 1.4 1.7 0L0 5.8L0 15.1L3 4.4Z" fill="#1a1a1a" fill-rule="evenodd"/></g><g transform="matrix(1 0 0 1 0 160.5)"><path d="M1.6 4.3C1.3 2.8 1.1 1.4 0.9 0L0 3.1L0 9.6L1.6 4.3Z" fill="#1a1a1a" fill-rule="evenodd"/></g><g transform="matrix(1 0 0 1 0 155.6)"><path d="M0.9 4.4C0.7 3 0.8 1.5 1 0L0 3.1L0 7.2L0.9 4.4Z" fill="#1a1a1a" fill-rule="evenodd"/></g><g transform="matrix(1 0 0 1 0 150.7)"><path d="M1 3.9C1 2.8 1.3 1.4 1.5 0L0 4.9L0 7.2L1 3.9Z" fill="#1a1a1a" fill-rule="evenodd"/></g><g transform="matrix(1 0 0 1 0 146.6)"><path d="M1.5 3.7C1.8 2.5 2.2 1.3 2.6 0L0 8.4L0 8.6L1.5 3.7L1.5 3.7Z" fill="#1a1a1a" fill-rule="evenodd"/></g><g transform="matrix(1 0 0 1 0 142.4)"><path d="M2.9 3.4C3.4 2.3 4 1 4.4 0C2.9 4.7 1.5 9.5 0 14.2L0 12.6C1 9.5 1.9 6.5 2.9 3.4Z" fill="#1a1a1a" fill-rule="evenodd"/></g><g transform="matrix(1 0 0 1 0 138.1)"><path d="M4.9 3.5C5.5 2.4 6.3 1.2 7.2 0C4.8 7.8 2.4 15.6 0 23.4L0 19.3C1.6 14 3.3 8.7 4.9 3.5L4.9 3.5Z" fill="#1a1a1a" fill-rule="evenodd"/></g><g transform="matrix(1 0 0 1 103.2 267.8)"><path d="M26.4 16.2C20.6 10.6 15.1 5.3 9.9 0C6.7 5.3 3.3 10.7 0 16.2L26.4 16.2Z" fill="#1a1a1a" fill-rule="evenodd"/></g><g transform="matrix(1 0 0 1 76.3 248.8)"><path d="M33.8 16.3C27.9 10 22.3 4.8 17.1 0C11.2 8.1 5.8 16 0 24.7C2.6 27.9 5.2 31.4 8 35.2L22 35.2C26 28.7 29.9 22.4 33.8 16.3Z" fill="#1a1a1a" fill-rule="evenodd"/></g><g transform="matrix(1 0 0 1 61.2 233.1)"><path d="M29.8 13.2C24.6 8.6 20 4.2 15.6 0C10.5 6.9 5.2 14.3 0 21.6C3.9 26.6 8.3 31.8 12.8 37.5C18.5 29.2 23.9 21.3 29.8 13.2Z" fill="#1a1a1a" fill-rule="evenodd"/></g><g transform="matrix(1 0 0 1 48.9 220.6)"><path d="M25.8 10.5C21.7 7 17.8 3.4 14.1 0C9.6 6.1 4.8 11.9 0 18.2C3.3 22.4 6.8 26.7 10.4 31.6C15.5 24.6 20.7 17.3 25.8 10.5L25.8 10.5Z" fill="#1a1a1a" fill-rule="evenodd"/></g><g transform="matrix(1 0 0 1 30.4 200.6)"><path d="M19.9 7.6C17.1 4.9 14.3 2.4 11.7 0C7.9 4.5 3.8 9.4 0 14.1C2.1 17 4.6 20.1 7.1 23.6C11.4 18 15.6 13.1 19.9 7.6Z" fill="#1a1a1a" fill-rule="evenodd"/></g><g transform="matrix(1 0 0 1 23.5 192.9)"><path d="M17.1 6.8C14.7 4.5 12.3 2.4 10.2 0C6.8 4 3.3 8.1 0 12.1C1.8 14.8 3.8 17.5 5.9 20.3C9.5 15.9 13.4 11.2 17.1 6.8Z" fill="#1a1a1a" fill-rule="evenodd"/></g><g transform="matrix(1 0 0 1 17.4 185.5)"><path d="M14.8 6C12.8 3.9 11 1.9 9.2 0C6.1 3.5 2.9 7.2 0 10.7C1.4 12.9 3.1 15.2 4.8 17.6C8.1 13.7 11.6 9.7 14.8 6L14.8 6Z" fill="#1a1a1a" fill-rule="evenodd"/></g><g transform="matrix(1 0 0 1 12.5 179.5)"><path d="M13 5C11.3 3.3 9.8 1.6 8.2 0C5.5 3 2.7 6.1 0 9.1C1.1 11.3 2.4 13.4 3.7 15.7C6.8 12.2 10 8.5 13 5Z" fill="#1a1a1a" fill-rule="evenodd"/></g><g transform="matrix(1 0 0 1 8.7 173.8)"><path d="M11.3 4.9C9.9 3.3 8.6 1.6 7.5 0C5 2.7 2.7 5.3 0 8.2C1.1 10.1 2.2 11.9 3.4 13.9C6 11 8.7 8 11.3 4.9L11.3 4.9Z" fill="#1a1a1a" fill-rule="evenodd"/></g><g transform="matrix(1 0 0 1 5.6 168.4)"><path d="M9.9 4.1C8.7 2.7 7.7 1.4 6.6 0C4.3 2.5 2 5.1 0 7.3C0.7 9 1.6 10.6 2.3 12.5C4.8 9.7 7.4 6.8 9.9 4.1L9.9 4.1Z" fill="#1a1a1a" fill-rule="evenodd"/></g><g transform="matrix(1 0 0 1 3.7 163.9)"><path d="M8.1 4C7.1 2.7 6.3 1.2 5.5 0C3.7 1.9 1.8 4 0 6.1C0.5 7.7 1 9.3 1.7 11C3.8 8.7 5.9 6.3 8.1 4Z" fill="#1a1a1a" fill-rule="evenodd"/></g><g transform="matrix(1 0 0 1 2.2 159.4)"><path d="M6.6 3.7C5.8 2.6 5.3 1.2 4.8 0C3.2 1.7 1.6 3.4 0 5.1C0.3 6.6 0.8 8 1.1 9.7C2.9 7.8 4.9 5.6 6.6 3.7L6.6 3.7Z" fill="#1a1a1a" fill-rule="evenodd"/></g><g transform="matrix(1 0 0 1 1.3 155.3)"><path d="M5.3 3.6C5 2.3 4.5 1.2 4.2 0C2.7 1.5 1.5 2.9 0 4.5C0.2 5.8 0.4 7.2 0.7 8.6C2.3 6.8 3.9 5.2 5.3 3.6L5.3 3.6Z" fill="#1a1a1a" fill-rule="evenodd"/></g><g transform="matrix(1 0 0 1 1.2 151)"><path d="M4.1 3.5C3.9 2.3 3.6 1.3 3.6 0C2.3 1.4 1.2 2.6 0.1 3.8C0 5.2 0 6.5 0.1 8C1.3 6.6 2.8 5 4.1 3.5L4.1 3.5Z" fill="#1a1a1a" fill-rule="evenodd"/></g><g transform="matrix(1 0 0 1 24.3 119.6)"><path d="M0.1 2.4C1.8 1.5 3.3 0.7 5 0C5 0.2 5 0.4 5.2 0.4C3.4 1.2 1.5 2.3 0 3.1C0 2.8 0 2.7 0.1 2.4Z" fill="#1a1a1a" fill-rule="evenodd"/></g><g transform="matrix(1 0 0 1 1.8 143.6)"><path d="M2.8 3.2C3 2 3.2 0.9 3.4 0C2.8 0.7 1.9 1.6 1.2 2.4C0.8 3.7 0.4 5 0 6.2C1.1 5.1 1.9 4.2 2.8 3.2L2.8 3.2Z" fill="#1a1a1a" fill-rule="evenodd"/></g><g transform="matrix(1 0 0 1 3.1 139.6)"><path d="M2.4 3.1C2.8 2.1 3.2 1 3.6 0C2.9 0.8 2.4 1.4 1.8 2.2C1.1 3.4 0.5 4.5 0 5.8C0.8 4.8 1.5 4.1 2.4 3.1L2.4 3.1Z" fill="#1a1a1a" fill-rule="evenodd"/></g><g transform="matrix(1 0 0 1 12.3 127.7)"><path d="M1.1 2.7C2 1.7 3 0.8 4.1 0C3.8 0.4 3.5 0.8 3.3 1.1C2.2 2.1 1.1 3.1 0 4C0.4 3.6 0.6 3.3 1.1 2.7Z" fill="#1a1a1a" fill-rule="evenodd"/></g><g transform="matrix(1 0 0 1 144.2 255.5)"><path d="M44.8 19.2C34.7 12.4 26 5.9 16.8 0C11.4 9.2 5.7 18.4 0 28.5L39.8 28.5C41.5 25.3 43.1 22.2 44.8 19.2Z" fill="#1a1a1a" fill-rule="evenodd"/></g><g transform="matrix(1 0 0 1 117.1 236.9)"><path d="M39.9 16.1C31.8 10.4 24.3 5 17.4 0C11.5 8.7 5.8 17.3 0 26.5C6.8 32.8 13.7 39.7 21.6 46.5C27.6 35.8 33.9 25.9 39.9 16.1Z" fill="#1a1a1a" fill-rule="evenodd"/></g><g transform="matrix(1 0 0 1 96.8 222.5)"><path d="M34.3 12.1C27.7 8.2 21.8 4 16 0C10.7 7.1 5.3 14.5 0 22.2C5.4 27.3 10.9 32.4 17.1 38.3C23 29.1 28.5 20.4 34.3 12.1Z" fill="#1a1a1a" fill-rule="evenodd"/></g><g transform="matrix(1 0 0 1 79.9 210.2)"><path d="M30.4 10.2C24.8 6.6 19.8 3 14.9 0C10.1 6.1 4.9 12.9 0 19.9C4.5 23.9 9.3 27.8 14.5 32.2C19.6 24.8 25 17.5 30.4 10.2Z" fill="#1a1a1a" fill-rule="evenodd"/></g><g transform="matrix(1 0 0 1 65.9 200.7)"><path d="M26.7 8C22 5.3 17.9 2.4 13.7 0C9.1 5.4 4.7 11 0 17.1C3.7 20.3 7.8 23.6 11.8 27.2C16.7 20.8 21.8 14.1 26.7 8Z" fill="#1a1a1a" fill-rule="evenodd"/></g><g transform="matrix(1 0 0 1 29.4 116.1)"><path d="M8.1 0.4C7 0.3 6 0.2 5.2 0C3.4 1.8 1.7 3.4 0 5C0.9 5.2 1.7 5.4 2.6 5.7C4.4 4 6.1 2.2 8.1 0.4Z" fill="#1a1a1a" fill-rule="evenodd"/></g><g transform="matrix(1 0 0 1 44.4 185)"><path d="M20.7 5.9C17.5 4 14.5 1.9 11.5 0C7.7 4.5 3.8 9 0 13.6C2.7 15.7 5.5 18.2 8.6 20.6C12.6 15.7 16.6 10.8 20.7 5.9Z" fill="#1a1a1a" fill-rule="evenodd"/></g><g transform="matrix(1 0 0 1 36.2 179)"><path d="M17.9 5.4C15.2 3.5 12.5 1.8 9.9 0C6.6 3.7 3.2 7.6 0 11.6C2.2 13.8 4.6 15.9 7 18.1C10.6 14 14.3 9.7 17.9 5.4Z" fill="#1a1a1a" fill-rule="evenodd"/></g><g transform="matrix(1 0 0 1 28.8 173.4)"><path d="M15.7 4.6C13.3 3.1 11.3 1.4 9.1 0C6 3.4 2.9 6.8 0 10.2C1.8 12.1 3.8 13.9 5.9 16C9.2 11.9 12.5 8.2 15.7 4.6L15.7 4.6Z" fill="#1a1a1a" fill-rule="evenodd"/></g><g transform="matrix(1 0 0 1 22.4 168.4)"><path d="M14.2 4C12.2 2.6 10.3 1.1 8.4 0C5.7 2.9 2.9 6 0 9.4C1.5 11 3.2 12.5 5 14.4C8 11 11.1 7.3 14.2 4Z" fill="#1a1a1a" fill-rule="evenodd"/></g><g transform="matrix(1 0 0 1 17.9 164)"><path d="M12.2 3.8C10.5 2.4 8.9 1.3 7.5 0C5 2.7 2.5 5.4 0 8C1.3 9.6 2.6 11.2 4.1 12.9C6.8 9.7 9.5 6.8 12.2 3.8L12.2 3.8Z" fill="#1a1a1a" fill-rule="evenodd"/></g><g transform="matrix(1 0 0 1 13.4 159.7)"><path d="M11 3.4C9.5 2.4 8.3 1.1 7.1 0C4.7 2.5 2.3 5 0 7.7C1.3 8.8 2.2 10.3 3.4 11.7C5.8 9 8.5 6.1 11 3.4L11 3.4Z" fill="#1a1a1a" fill-rule="evenodd"/></g><g transform="matrix(1 0 0 1 10.6 156.1)"><path d="M9.3 3.3C7.9 2.3 7.1 1.1 6 0C4 2.1 1.9 4.3 0 6.5C1 7.6 1.8 9 2.8 10.3C4.9 8 7.1 5.6 9.3 3.3Z" fill="#1a1a1a" fill-rule="evenodd"/></g><g transform="matrix(1 0 0 1 5.7 146)"><path d="M5 2.9C4.6 1.9 4.2 1 3.9 0C2.5 1.5 1.3 2.8 0 4.1C0.2 5.2 0.5 6.3 0.6 7.6C2.2 5.9 3.6 4.4 5 2.9L5 2.9Z" fill="#1a1a1a" fill-rule="evenodd"/></g><g transform="matrix(1 0 0 1 5.5 142.9)"><path d="M3.7 2.8C3.6 1.7 3.3 0.9 3.2 0C2.2 1.1 1.1 2.3 0 3.4C0 4.5 0.1 5.6 0.2 6.6C1.3 5.3 2.5 4 3.7 2.8Z" fill="#1a1a1a" fill-rule="evenodd"/></g><g transform="matrix(1 0 0 1 6.1 136.7)"><path d="M2.8 2.5C2.9 1.8 3.1 0.8 3.3 0C2.6 0.8 1.9 1.7 1.2 2.4C0.7 3.5 0.3 4.5 0 5.5C0.9 4.6 1.8 3.5 2.8 2.5L2.8 2.5Z" fill="#1a1a1a" fill-rule="evenodd"/></g><g transform="matrix(1 0 0 1 8.8 131.3)"><path d="M1.8 2.7C2.2 2 2.8 1 3.6 0C3.2 0.6 2.7 1.2 2.5 1.6C1.5 2.8 0.8 3.7 0 4.7C0.5 4.1 1.2 3.3 1.8 2.7L1.8 2.7Z" fill="#1a1a1a" fill-rule="evenodd"/></g><g transform="matrix(1 0 0 1 14.4 124.9)"><path d="M1.7 2.2C2.4 1.4 3.2 0.6 3.9 0C3.5 0.6 3.1 1.2 2.6 1.7C1.7 2.5 0.8 3.4 0 4.1C0.6 3.4 1.1 2.9 1.7 2.2L1.7 2.2Z" fill="#1a1a1a" fill-rule="evenodd"/></g><g transform="matrix(1 0 0 1 11.5 129.3)"><path d="M2.7 1.9C2.9 1.3 3.1 0.6 3.3 0C2.5 0.9 1.7 1.8 1 2.6C0.7 3.3 0.3 4.1 0 4.9C0.9 4 1.8 3 2.7 1.9Z" fill="#1a1a1a" fill-rule="evenodd"/></g><g transform="matrix(1 0 0 1 293.9 168.9)"><path d="M62.2 10.1C45.8 6.7 30.6 3.3 16.4 0C10.9 8.9 5.3 17.3 0 26.4C13.8 30.3 29.1 35.2 46 40.3C51.5 29.8 56.8 19.9 62.2 10.1L62.2 10.1Z" fill="#1a1a1a" fill-rule="evenodd"/></g><g transform="matrix(1 0 0 1 213.7 162.1)"><path d="M47.4 7C35.9 4.4 25.8 1.9 15.7 0C10.7 6.7 5.4 13.6 0 20.9C9.8 23.9 20.1 27.1 31.2 30.6C36.4 22.6 42 14.5 47.4 7L47.4 7Z" fill="#1a1a1a" fill-rule="evenodd"/></g><g transform="matrix(1 0 0 1 208 115.7)"><path d="M39.6 1.4C30.4 1 21.9 0.4 13.6 0C8.9 5.1 4.4 10 0 15.2C8 15.9 16.5 16.8 25.6 18.2C30.1 12.4 34.6 6.7 39.6 1.4Z" fill="#1a1a1a" fill-rule="evenodd"/></g><g transform="matrix(1 0 0 1 254.3 266.2)"><path d="M41.9 17.8C30.2 11.6 19.2 5.7 8.9 0C5.9 5.8 2.9 11.7 0 17.8L41.9 17.8L41.9 17.8Z" fill="#1a1a1a" fill-rule="evenodd"/></g><g transform="matrix(1 0 0 1 200.6 242.3)"><path d="M55.6 20.3C42.1 13.1 30.2 6.2 18.6 0C12.5 10.5 6.2 21.9 0 33.2C3.8 36 7.7 38.8 11.6 41.7L45.1 41.7C48.6 34.4 52.1 27.3 55.6 20.3Z" fill="#1a1a1a" fill-rule="evenodd"/></g><g transform="matrix(1 0 0 1 167.2 224.8)"><path d="M46.6 14.7C36.1 9.6 26.3 4.8 17.4 0C11.7 8.7 5.5 18.1 0 27.8C8.7 33.8 18 40 28.3 46.6C34.3 35.5 40.5 25.1 46.6 14.7Z" fill="#1a1a1a" fill-rule="evenodd"/></g><g transform="matrix(1 0 0 1 139.4 211.4)"><path d="M40.3 12C31.6 7.6 23.6 3.7 16.1 0C11 7.4 5.5 15 0 22.7C7.2 27.6 15.1 33 23.4 38.7C29.1 29.1 34.6 20.6 40.3 12L40.3 12Z" fill="#1a1a1a" fill-rule="evenodd"/></g><g transform="matrix(1 0 0 1 116.3 199.3)"><path d="M34.6 9.4C27.7 6.2 21.1 3.1 14.9 0C10 6.3 5 13 0 19.9C5.9 24 12 27.9 18.7 31.8C23.9 24.4 29.3 16.9 34.6 9.4L34.6 9.4Z" fill="#1a1a1a" fill-rule="evenodd"/></g><g transform="matrix(1 0 0 1 96.9 189.6)"><path d="M30.8 7.9C25.1 4.7 19.7 2.3 14.4 0C9.7 5.9 4.9 12 0 18.1C5.1 21 10.4 24.3 15.7 27.9C20.7 21.2 25.8 14.4 30.8 7.9Z" fill="#1a1a1a" fill-rule="evenodd"/></g><g transform="matrix(1 0 0 1 82.3 182.6)"><path d="M26.6 6.4C21.9 4.1 17.2 1.9 12.6 0C8.5 5.1 4.2 10.2 0 15.3C4.2 17.9 8.6 20.6 13 23.6C17.6 17.8 22.2 11.9 26.6 6.4L26.6 6.4Z" fill="#1a1a1a" fill-rule="evenodd"/></g><g transform="matrix(1 0 0 1 57.7 170.5)"><path d="M20.9 4.4C17.2 3.1 13.9 1.5 10.6 0C7.1 4 3.4 8.1 0 12.1C3 14 5.9 16.1 9.4 17.9C13.2 13.4 17 8.9 20.9 4.4L20.9 4.4Z" fill="#1a1a1a" fill-rule="evenodd"/></g><g transform="matrix(1 0 0 1 47.9 165.7)"><path d="M18.6 4.1C15.4 2.6 12.6 1.1 9.7 0C6.4 3.6 3.4 7 0 10.9C2.6 12.6 5.3 14.2 8 16.1C11.6 12 15 8 18.6 4.1Z" fill="#1a1a1a" fill-rule="evenodd"/></g><g transform="matrix(1 0 0 1 40 161.6)"><path d="M16.3 3.5C13.7 2.3 11.3 1.1 8.9 0C5.8 3.3 2.7 6.5 0 9.8C2 11.3 4.4 12.7 6.7 14.2C10 10.6 13.1 7 16.3 3.5L16.3 3.5Z" fill="#1a1a1a" fill-rule="evenodd"/></g><g transform="matrix(1 0 0 1 32.7 157.9)"><path d="M14.4 3.2C12 2.1 9.9 1.1 7.8 0C5.4 2.6 2.5 5.8 0 8.6C1.8 9.9 3.8 11.2 5.8 12.6C8.6 9.4 11.5 6.3 14.4 3.2Z" fill="#1a1a1a" fill-rule="evenodd"/></g><g transform="matrix(1 0 0 1 26.7 154.7)"><path d="M12.7 2.6C10.8 1.7 8.8 0.9 7.1 0C4.7 2.5 2.4 5.1 0 7.6C1.5 8.7 3.3 9.7 4.9 11.2C7.5 8.2 10 5.4 12.7 2.6L12.7 2.6Z" fill="#1a1a1a" fill-rule="evenodd"/></g><g transform="matrix(1 0 0 1 22 151.8)"><path d="M11.3 2.5C9.6 1.6 8.1 0.7 6.5 0C4.4 2.1 2.2 4.5 0 6.8C1.4 7.8 2.7 8.9 4.2 10.1C6.5 7.6 8.9 5.1 11.3 2.5Z" fill="#1a1a1a" fill-rule="evenodd"/></g><g transform="matrix(1 0 0 1 17.9 148.5)"><path d="M9.9 2.5C8.6 1.6 7.3 0.7 6 0C3.9 2.2 1.9 4.3 0 6.3C1 7.4 2.1 8.4 3.3 9.5C5.6 7.1 7.7 4.9 9.9 2.5L9.9 2.5Z" fill="#1a1a1a" fill-rule="evenodd"/></g><g transform="matrix(1 0 0 1 14.5 145.9)"><path d="M8.6 2.1C7.4 1.5 6.3 0.8 5.4 0C3.6 1.9 1.9 3.6 0 5.7C0.8 6.6 1.7 7.5 2.6 8.5C4.6 6.5 6.5 4.5 8.6 2.1Z" fill="#1a1a1a" fill-rule="evenodd"/></g><g transform="matrix(1 0 0 1 167.2 138)"><path d="M35.6 3.1C28 2 20.7 1.1 13.6 0C9.1 5.3 4.7 10.4 0 15.7C6.8 17.2 14 18.5 21.6 20.4C26.3 14.5 31.1 8.8 35.6 3.1L35.6 3.1Z" fill="#1a1a1a" fill-rule="evenodd"/></g><g transform="matrix(1 0 0 1 48 113.7)"><path d="M12.5 0C10.4 0 8.4 0 6.6 0.1C4.4 2.2 2.1 4.4 0 6.5C1.8 6.5 3.4 6.8 5.4 6.9C7.7 4.6 10.1 2.3 12.5 0L12.5 0Z" fill="#1a1a1a" fill-rule="evenodd"/></g><g transform="matrix(1 0 0 1 48.6 106.9)"><path d="M11.6 0C9.7 0.2 7.9 0.4 6.2 0.5C4 2.5 2 4.5 0 6.3C1.6 6.4 3.3 6.3 5 6.3C7.1 4.2 9.4 2.1 11.6 0Z" fill="#1a1a1a" fill-rule="evenodd"/></g><g transform="matrix(1 0 0 1 404.6 277)"><path d="M19 7C13.4 4.6 8 2.3 2.6 0C1.7 2.3 0.9 4.6 0 7L19 7L19 7Z" fill="#1a1a1a" fill-rule="evenodd"/></g><g transform="matrix(1 0 0 1 168.7 91)"><path d="M30 0C23.4 0.3 17.1 0.6 11.1 0.9C7.4 4.6 3.8 8.3 0 11.8C6 11.9 12 11.8 18.4 11.7C22.2 7.7 26.1 3.9 30 0L30 0Z" fill="#1a1a1a" fill-rule="evenodd"/></g><g transform="matrix(1 0 0 1 262.7 224.8)"><path d="M64.4 18.6C47.6 11.7 32.1 5.6 17.4 0C11.7 10.6 5.6 21.9 0 34.1C14.4 41.6 29.5 49.3 46.4 57.4C52.1 44.2 58.3 31.1 64.4 18.6L64.4 18.6Z" fill="#1a1a1a" fill-rule="evenodd"/></g><g transform="matrix(1 0 0 1 185.2 195)"><path d="M46.7 10.9C36 7 25.9 3.5 16.5 0C11 7.8 5.4 16.1 0 24.5C9 29.1 18.9 33.8 29 38.5C34.9 29.2 40.8 19.7 46.7 10.9L46.7 10.9Z" fill="#1a1a1a" fill-rule="evenodd"/></g><g transform="matrix(1 0 0 1 132.6 176.6)"><path d="M34.6 7.1C27.2 4.6 20.5 2.3 14.1 0C9.5 5.7 4.7 11.9 0 18.3C6.1 21.2 12.8 24.3 19.5 27.5C24.3 20.5 29.6 13.5 34.6 7.1L34.6 7.1Z" fill="#1a1a1a" fill-rule="evenodd"/></g><g transform="matrix(1 0 0 1 112.2 170)"><path d="M30.9 5.5C24.8 3.5 19.1 1.6 13.6 0C9 5.4 4.6 10.9 0 16.4C5.2 18.6 10.5 20.8 16.2 23.6C21.2 17.2 26 11.1 30.9 5.5Z" fill="#1a1a1a" fill-rule="evenodd"/></g><g transform="matrix(1 0 0 1 96.5 164.5)"><path d="M27 4.9C21.9 3.2 17 1.6 12.2 0C8.1 4.8 4.1 9.4 0 14.3C4.4 16.3 9.1 18.5 13.9 20.7C18.4 15.3 22.8 10 27 4.9L27 4.9Z" fill="#1a1a1a" fill-rule="evenodd"/></g><g transform="matrix(1 0 0 1 81.3 159.7)"><path d="M24.1 3.8C19.8 2.5 15.5 1.2 11.7 0C7.6 4.5 3.8 8.7 0 13.2C3.6 14.6 7.5 16.3 11.8 18.3C15.9 13.2 20.1 8.4 24.1 3.8Z" fill="#1a1a1a" fill-rule="evenodd"/></g><g transform="matrix(1 0 0 1 69.8 156)"><path d="M21.3 3.3C17.4 2.3 13.9 1 10.3 0C6.8 3.7 3.3 7.8 0 11.7C3.2 13.1 6.5 14.6 10.3 15.9C13.9 11.9 17.6 7.5 21.3 3.3L21.3 3.3Z" fill="#1a1a1a" fill-rule="evenodd"/></g><g transform="matrix(1 0 0 1 59.1 152.8)"><path d="M19.1 2.6C15.7 1.7 12.5 0.9 9.5 0C6.3 3.5 3 6.9 0 10.3C2.8 11.3 5.8 12.6 8.8 14C12.1 10.1 15.6 6.4 19.1 2.6Z" fill="#1a1a1a" fill-rule="evenodd"/></g><g transform="matrix(1 0 0 1 50.3 149.8)"><path d="M16.9 2.5C14.1 1.8 11.3 0.9 8.7 0C5.7 3.2 2.8 6.3 0 9.4C2.3 10.5 4.9 11.6 7.5 12.6C10.6 9.3 13.7 5.9 16.9 2.5L16.9 2.5Z" fill="#1a1a1a" fill-rule="evenodd"/></g><g transform="matrix(1 0 0 1 42.2 147.2)"><path d="M15 2.3C12.4 1.6 10.2 0.7 8 0C5.3 2.7 2.6 5.5 0 8.2C1.9 9.4 4.2 10.5 6.6 11.4C9.4 8.3 12.1 5.3 15 2.3L15 2.3Z" fill="#1a1a1a" fill-rule="evenodd"/></g><g transform="matrix(1 0 0 1 35.4 145.1)"><path d="M13.2 1.9C11.1 1.2 9 0.6 7 0C4.7 2.3 2.3 4.9 0 7.4C1.8 8.1 3.6 9 5.6 9.8C8.1 7.2 10.6 4.6 13.2 1.9L13.2 1.9Z" fill="#1a1a1a" fill-rule="evenodd"/></g><g transform="matrix(1 0 0 1 29.9 142.7)"><path d="M11.8 2C10.1 1.3 8.3 0.6 6.5 0C4.4 2.2 2.1 4.7 0 6.9C1.6 7.7 3.1 8.5 4.8 9.4C7.1 6.9 9.5 4.5 11.8 2L11.8 2Z" fill="#1a1a1a" fill-rule="evenodd"/></g><g transform="matrix(1 0 0 1 24.9 140.7)"><path d="M10.7 1.6C9.1 1 7.6 0.5 6.1 0C4 2.1 2 4.1 0 6.2C1.3 6.9 2.6 7.6 4 8.5C6.2 6.2 8.4 3.9 10.7 1.6L10.7 1.6Z" fill="#1a1a1a" fill-rule="evenodd"/></g><g transform="matrix(1 0 0 1 125 133.6)"><path d="M28.5 1.6C22.8 1 17.2 0.6 11.9 0C8 4.2 4 8.5 0 12.8C5.1 13.7 10.2 14.7 16 15.9C20.2 11 24.3 6.2 28.5 1.6Z" fill="#1a1a1a" fill-rule="evenodd"/></g><g transform="matrix(1 0 0 1 109 131.5)"><path d="M25.5 1.6C20.5 1 15.6 0.6 11.2 0C7.4 3.9 3.6 8 0 11.9C4.3 12.8 8.8 13.6 13.7 14.4C17.5 10.3 21.6 5.8 25.5 1.6Z" fill="#1a1a1a" fill-rule="evenodd"/></g><g transform="matrix(1 0 0 1 95 130.1)"><path d="M23.1 1.2C18.5 0.8 14.4 0.4 10.5 0C7 3.5 3.4 7.2 0 10.8C3.8 11.5 7.8 12.3 11.9 13.1C15.5 9.1 19.4 5 23.1 1.2Z" fill="#1a1a1a" fill-rule="evenodd"/></g><g transform="matrix(1 0 0 1 82.7 128.9)"><path d="M20.9 0.9C17 0.6 13.3 0.3 9.8 0C6.5 3.3 3.1 6.8 0 10.1C3.4 10.6 6.9 11 10.5 11.6C13.8 8.2 17.4 4.4 20.9 0.9L20.9 0.9Z" fill="#1a1a1a" fill-rule="evenodd"/></g><g transform="matrix(1 0 0 1 71.9 127.9)"><path d="M18.9 1C15.5 0.6 12.3 0.1 9.1 0C6.1 3 3 6.1 0 9.3C2.9 9.8 5.9 10.3 9.2 11C12.3 7.6 15.7 4.2 18.9 1Z" fill="#1a1a1a" fill-rule="evenodd"/></g><g transform="matrix(1 0 0 1 62.6 127.1)"><path d="M16.9 0.7C13.9 0.4 11.2 0.2 8.4 0C5.5 2.8 2.5 5.7 0 8.4C2.4 8.9 5 9.4 7.9 9.8C10.9 6.7 13.8 3.7 16.9 0.7L16.9 0.7Z" fill="#1a1a1a" fill-rule="evenodd"/></g><g transform="matrix(1 0 0 1 54.2 126.3)"><path d="M15.5 0.7C12.9 0.4 10.3 0.3 7.9 0C5.3 2.6 2.6 5.3 0 7.9C2.2 8.4 4.7 8.7 7.1 9C9.8 6.3 12.5 3.5 15.5 0.7L15.5 0.7Z" fill="#1a1a1a" fill-rule="evenodd"/></g><g transform="matrix(1 0 0 1 47.1 125.7)"><path d="M13.8 0.6C11.4 0.4 9.2 0.2 7.1 0C4.8 2.4 2.4 4.7 0 7.1C2 7.4 4.1 7.9 6.1 8.3C8.6 5.7 11.1 3.3 13.8 0.6Z" fill="#1a1a1a" fill-rule="evenodd"/></g><g transform="matrix(1 0 0 1 40.6 125.1)"><path d="M12.3 0.5C10.3 0.3 8.5 0.1 6.6 0C4.4 2.1 2.2 4.3 0 6.5C1.7 6.8 3.3 7.2 5.1 7.5C7.5 5.1 10 2.8 12.3 0.5L12.3 0.5Z" fill="#1a1a1a" fill-rule="evenodd"/></g><g transform="matrix(1 0 0 1 35 124.4)"><path d="M11.2 0.5C9.4 0.3 7.9 0.1 6.3 0C4.2 2.1 2.1 4 0 6.2C1.4 6.5 3 6.8 4.5 7.2C6.7 5 9 2.7 11.2 0.5L11.2 0.5Z" fill="#1a1a1a" fill-rule="evenodd"/></g><g transform="matrix(1 0 0 1 31 123.6)"><path d="M9.7 0.8C8.2 0.6 6.9 0.2 5.6 0C3.7 1.9 1.8 3.8 0 5.6C1.1 6 2.5 6.3 3.7 6.7C5.6 4.7 7.7 2.7 9.7 0.8Z" fill="#1a1a1a" fill-rule="evenodd"/></g><g transform="matrix(1 0 0 1 27.1 122.8)"><path d="M8.7 0.6C7.6 0.3 6.3 0.3 5.3 0C3.5 1.8 1.7 3.5 0 5.2C0.9 5.5 1.9 5.9 3 6.2C4.8 4.4 6.7 2.6 8.7 0.6L8.7 0.6Z" fill="#1a1a1a" fill-rule="evenodd"/></g><g transform="matrix(1 0 0 1 18.5 123.4)"><path d="M4.3 1.1C3.9 0.8 3.6 0.3 3.4 0C2.2 1.3 1 2.4 0 3.5C0 4.1 0.2 4.5 0.4 5C1.7 3.7 2.9 2.5 4.3 1.1L4.3 1.1Z" fill="#1a1a1a" fill-rule="evenodd"/></g><g transform="matrix(1 0 0 1 46.2 111.3)"><path d="M0 2.8C2.9 2.2 5.7 1.5 8.9 0.9C9.7 0.5 10.4 0.3 11.3 0C7.9 0.8 4.8 1.5 1.7 2.2C1 2.7 0.6 2.5 0 2.8Z" fill="#1a1a1a" fill-rule="evenodd"/></g><g transform="matrix(1 0 0 1 65.7 109.9)"><path d="M0 1C4.1 0.6 8.2 0.6 12.6 0.4C13.5 0.4 14.4 0.3 15.4 0C10.7 0.4 6.5 0.3 2.3 0.6C1.4 1 0.6 0.8 0 1L0 1Z" fill="#1a1a1a" fill-rule="evenodd"/></g><g transform="matrix(1 0 0 1 121.1 118.5)"><path d="M25.9 0.8C20.7 0.5 15.6 0.3 11 0C7.3 3.7 3.6 7.5 0 11.3C4.6 11.8 9.5 12.3 14.3 12.8C18.2 8.7 22.1 4.6 25.9 0.8L25.9 0.8Z" fill="#1a1a1a" fill-rule="evenodd"/></g><g transform="matrix(1 0 0 1 106.4 118.1)"><path d="M23.4 0.3C18.8 0.3 14.4 0.2 10.3 0C6.9 3.4 3.2 7 0 10.5C3.9 10.8 8.1 11.1 12.5 11.5C16.1 7.8 19.8 4 23.4 0.3L23.4 0.3Z" fill="#1a1a1a" fill-rule="evenodd"/></g><g transform="matrix(1 0 0 1 93.4 117.9)"><path d="M21.3 0.2C17.2 0.1 13.3 0.1 9.5 0C6.3 3.1 3.1 6.3 0 9.7C3.6 9.9 7.2 10.1 11.1 10.6C14.3 7.2 17.9 3.5 21.3 0.2L21.3 0.2Z" fill="#1a1a1a" fill-rule="evenodd"/></g><g transform="matrix(1 0 0 1 81.9 117.6)"><path d="M19.3 0.1C15.6 0 12.3 0.1 9 0C5.9 3 2.9 5.9 0 8.8C3.1 9 6.3 9.4 9.7 9.7C12.9 6.5 16.1 3.2 19.3 0.1Z" fill="#1a1a1a" fill-rule="evenodd"/></g><g transform="matrix(1 0 0 1 71.9 117.5)"><path d="M17.5 0.1C14.3 0.1 11.4 0 8.5 0C5.6 2.8 2.7 5.5 0 8.3C2.7 8.5 5.6 8.7 8.6 8.9C11.5 5.9 14.5 3.1 17.5 0.1Z" fill="#1a1a1a" fill-rule="evenodd"/></g><g transform="matrix(1 0 0 1 63 117.3)"><path d="M16 0.1C13.1 0.1 10.5 0.1 7.9 0C5.2 2.6 2.6 5.1 0 7.8C2.3 8.2 4.9 8.3 7.5 8.5C10.4 5.7 13 2.9 16 0.1L16 0.1Z" fill="#1a1a1a" fill-rule="evenodd"/></g><g transform="matrix(1 0 0 1 55.2 117.3)"><path d="M14.5 0C12 0 9.6 0.1 7.4 0.1C5 2.3 2.5 4.8 0 7.1C2.1 7.3 4.3 7.4 6.6 7.7C9.1 5.1 11.8 2.6 14.5 0Z" fill="#1a1a1a" fill-rule="evenodd"/></g><g transform="matrix(1 0 0 1 133.7 105.6)"><path d="M26.3 0C20.8 0.1 15.6 0.1 10.7 0.3C7.1 3.8 3.5 7.3 0 10.9C4.8 11 9.9 11.3 15 11.5C18.8 7.6 22.7 3.7 26.3 0L26.3 0Z" fill="#1a1a1a" fill-rule="evenodd"/></g><g transform="matrix(1 0 0 1 118.3 106)"><path d="M23.8 0C19 0 14.4 0.2 10.1 0.4C6.7 3.7 3.3 7 0 10.2C4.2 10.2 8.7 10.3 13.2 10.5C16.7 6.8 20.2 3.4 23.8 0Z" fill="#1a1a1a" fill-rule="evenodd"/></g><g transform="matrix(1 0 0 1 104.5 106.4)"><path d="M21.7 0C17.4 0.1 13.3 0.3 9.4 0.4C6.3 3.4 3.2 6.5 0 9.7C3.7 9.7 7.6 9.8 11.7 9.9C14.9 6.5 18.3 3.2 21.7 0L21.7 0Z" fill="#1a1a1a" fill-rule="evenodd"/></g><g transform="matrix(1 0 0 1 92.4 106.8)"><path d="M19.7 0C15.8 0.2 12.5 0.3 9 0.5C5.8 3.4 3 6.2 0 9.1C3.4 9.1 6.8 9.1 10.4 9.1C13.4 6.1 16.6 3 19.7 0Z" fill="#1a1a1a" fill-rule="evenodd"/></g><g transform="matrix(1 0 0 1 81.8 107.5)"><path d="M17.8 0C14.6 0.1 11.5 0.2 8.4 0.3C5.5 3.1 2.7 5.8 0 8.4C2.8 8.5 5.8 8.5 9.1 8.5C12 5.6 14.9 2.8 17.8 0Z" fill="#1a1a1a" fill-rule="evenodd"/></g><g transform="matrix(1 0 0 1 72.2 107.8)"><path d="M16.4 0C13.3 0.2 10.6 0.3 8 0.4C5.3 2.9 2.5 5.5 0 8C2.6 8 5.2 8.1 8.2 8C10.9 5.4 13.6 2.8 16.4 0Z" fill="#1a1a1a" fill-rule="evenodd"/></g><g transform="matrix(1 0 0 1 63.5 108.6)"><path d="M15.1 0C12.4 0.2 10 0.4 7.5 0.5C5 2.9 2.4 5.3 0 7.7C2.3 7.6 4.7 7.5 7.3 7.4C9.8 5.1 12.3 2.7 15.1 0L15.1 0Z" fill="#1a1a1a" fill-rule="evenodd"/></g><g transform="matrix(1 0 0 1 129.4 94.5)"><path d="M24.2 0C19.2 0.3 14.5 0.5 9.9 0.8C6.6 4.1 3.3 7.2 0 10.5C4.5 10.2 9 10.2 13.9 10.1C17.2 6.7 20.6 3.3 24.2 0L24.2 0Z" fill="#1a1a1a" fill-rule="evenodd"/></g><g transform="matrix(1 0 0 1 115.1 95.6)"><path d="M22 0C17.5 0.2 13.4 0.6 9.3 1C6.2 3.9 3.1 6.9 0 9.9C4 9.5 7.9 9.5 12.3 9.4C15.6 6.2 18.8 2.9 22 0Z" fill="#1a1a1a" fill-rule="evenodd"/></g><g transform="matrix(1 0 0 1 102.4 96.8)"><path d="M20.1 0C16.2 0.3 12.6 0.7 8.9 1.1C5.9 3.8 3 6.6 0 9.4C3.6 9.1 7 9 11 8.7C13.9 5.9 17 3 20.1 0Z" fill="#1a1a1a" fill-rule="evenodd"/></g><g transform="matrix(1 0 0 1 91.1 98)"><path d="M18.3 0C14.8 0.3 11.6 0.5 8.3 0.8C5.5 3.4 2.8 6 0 8.7C3.1 8.5 6.2 8.4 9.7 8.2C12.6 5.4 15.4 2.7 18.3 0Z" fill="#1a1a1a" fill-rule="evenodd"/></g><g transform="matrix(1 0 0 1 81.1 99)"><path d="M16.7 0C13.8 0.2 10.9 0.5 7.8 0.9C5.2 3.3 2.6 5.8 0 8.2C2.7 8.1 5.6 7.8 8.5 7.7C11.3 5.1 14.1 2.6 16.7 0Z" fill="#1a1a1a" fill-rule="evenodd"/></g><g transform="matrix(1 0 0 1 65.4 101.8)"><path d="M14.5 0C12 0.3 9.5 0.6 7.2 0.8C4.9 3 2.4 5.2 0 7.5C2.3 7.3 4.6 7.2 7 7.1C9.4 4.7 11.9 2.4 14.5 0L14.5 0Z" fill="#1a1a1a" fill-rule="evenodd"/></g><g transform="matrix(1 0 0 1 58.5 102.7)"><path d="M12.7 0C10.5 0.2 8.4 0.3 6.4 0.6C4.2 2.7 2.1 4.6 0 6.6C1.8 6.6 3.9 6.4 5.8 6.4C8.1 4.3 10.4 2.1 12.7 0Z" fill="#1a1a1a" fill-rule="evenodd"/></g><g transform="matrix(1 0 0 1 125.8 85.3)"><path d="M22.4 0C17.9 0.5 13.6 1 9.3 1.6C6.2 4.4 3.2 7.2 0 10.1C4.3 9.6 8.3 9.3 12.9 8.8C16 5.8 19.2 3 22.4 0Z" fill="#1a1a1a" fill-rule="evenodd"/></g><g transform="matrix(1 0 0 1 112.5 87.1)"><path d="M20.5 0C16.5 0.4 12.5 1 8.7 1.5C5.9 4.1 3 6.8 0 9.6C3.7 9.2 7.3 8.9 11.4 8.6C14.5 5.6 17.6 2.8 20.5 0L20.5 0Z" fill="#1a1a1a" fill-rule="evenodd"/></g><g transform="matrix(1 0 0 1 100.7 88.8)"><path d="M18.7 0C15.2 0.4 11.7 0.9 8.1 1.4C5.4 4 2.8 6.3 0 8.9C3.2 8.6 6.6 8.3 10 8.1C12.9 5.3 15.9 2.6 18.7 0Z" fill="#1a1a1a" fill-rule="evenodd"/></g><g transform="matrix(1 0 0 1 90.2 90.4)"><path d="M17.2 0C14 0.5 10.9 0.9 7.9 1.3C5.3 3.7 2.6 6.1 0 8.4C3 8.1 5.9 7.8 9 7.4C11.8 4.9 14.5 2.4 17.2 0Z" fill="#1a1a1a" fill-rule="evenodd"/></g><g transform="matrix(1 0 0 1 73.7 93.8)"><path d="M14.8 0C12.1 0.4 9.5 0.7 7.2 1C4.8 3.3 2.3 5.5 0 7.7C2.3 7.5 4.7 7.2 7.3 6.9C9.8 4.6 12.2 2.4 14.8 0L14.8 0Z" fill="#1a1a1a" fill-rule="evenodd"/></g><g transform="matrix(1 0 0 1 65.5 95.5)"><path d="M13.6 0C11.2 0.3 9 0.7 6.9 1.1C4.6 3.1 2.4 5.1 0 7.2C2 7 4.3 6.8 6.5 6.6C8.8 4.4 11.1 2.2 13.6 0L13.6 0Z" fill="#1a1a1a" fill-rule="evenodd"/></g><g transform="matrix(1 0 0 1 135.2 74.7)"><path d="M22.6 0C17.9 0.7 13.5 1.4 9.2 2.1C6.1 4.7 3.2 7.3 0 10.2C4.3 9.6 8.7 9.1 13.2 8.5C16.3 5.6 19.5 2.8 22.6 0L22.6 0Z" fill="#1a1a1a" fill-rule="evenodd"/></g><g transform="matrix(1 0 0 1 121.6 77.1)"><path d="M20.7 0C16.5 0.7 12.5 1.3 8.5 2C5.8 4.5 2.9 7 0 9.6C3.8 9.1 7.8 8.6 11.8 8C14.7 5.3 17.7 2.7 20.7 0Z" fill="#1a1a1a" fill-rule="evenodd"/></g><g transform="matrix(1 0 0 1 132.3 67.6)"><path d="M21 0C16.7 0.8 12.6 1.6 8.6 2.3C5.7 4.9 2.8 7.4 0 9.8C3.8 9.2 7.9 8.5 12.2 7.8C15.1 5.3 18.1 2.6 21 0L21 0Z" fill="#1a1a1a" fill-rule="evenodd"/></g><g transform="matrix(1 0 0 1 172.4 70.3)"><path d="M27.6 0C21.4 0.9 15.7 1.6 10.2 2.2C6.6 5.3 3.2 8.6 0 11.6C5.3 11.1 11 10.5 17 9.9C20.4 6.6 23.9 3.3 27.6 0L27.6 0Z" fill="#1a1a1a" fill-rule="evenodd"/></g><g transform="matrix(1 0 0 1 24.2 130.1)"><path d="M9 1.1C7.7 0.7 6.5 0.3 5.4 0C3.6 1.8 1.7 3.6 0 5.5C0.9 6 1.9 6.5 3 7C4.9 5.1 7 3 9 1.1Z" fill="#1a1a1a" fill-rule="evenodd"/></g><g transform="matrix(1 0 0 1 27.8 131.3)"><path d="M10.3 1.1C8.8 0.7 7.4 0.4 6 0C3.9 2.1 1.9 4.1 0 6.1C1.1 6.7 2.3 7.3 3.7 7.8C5.8 5.6 8.1 3.3 10.3 1.1Z" fill="#1a1a1a" fill-rule="evenodd"/></g><g transform="matrix(1 0 0 1 32.2 132.5)"><path d="M11.6 1.2C9.9 0.9 8.3 0.4 6.7 0C4.4 2.4 2.1 4.6 0 6.8C1.4 7.3 2.9 7.8 4.6 8.3C6.9 5.9 9.3 3.5 11.6 1.2L11.6 1.2Z" fill="#1a1a1a" fill-rule="evenodd"/></g><g transform="matrix(1 0 0 1 37.9 133.9)"><path d="M13.2 1.2C11.2 0.8 9.2 0.3 7.2 0C4.8 2.3 2.4 4.9 0 7.4C1.8 7.9 3.5 8.6 5.3 9.3C7.9 6.5 10.6 3.9 13.2 1.2L13.2 1.2Z" fill="#1a1a1a" fill-rule="evenodd"/></g><g transform="matrix(1 0 0 1 44.3 135.3)"><path d="M14.8 1.2C12.4 0.8 10 0.5 8 0C5.3 2.6 2.6 5.3 0 8C2 8.7 4.2 9.3 6.4 9.9C9.1 7 11.9 4.2 14.8 1.2Z" fill="#1a1a1a" fill-rule="evenodd"/></g><g transform="matrix(1 0 0 1 51.8 136.8)"><path d="M16.3 1.4C13.5 1 11 0.5 8.6 0C5.5 3.1 2.7 6 0 8.9C2.2 9.5 4.7 10.3 7.1 11C10.3 7.7 13.1 4.7 16.3 1.4L16.3 1.4Z" fill="#1a1a1a" fill-rule="evenodd"/></g><g transform="matrix(1 0 0 1 60.2 138.6)"><path d="M18.1 1.7C15 1.2 12 0.6 9.2 0C6.1 3.3 3.1 6.4 0 9.6C2.6 10.5 5.4 11.3 8.3 12.1C11.5 8.6 14.9 5.1 18.1 1.7Z" fill="#1a1a1a" fill-rule="evenodd"/></g><g transform="matrix(1 0 0 1 70.9 140.5)"><path d="M20.3 1.7C16.7 1 13.2 0.5 10 0C6.7 3.3 3.3 6.9 0 10.4C3.1 11.2 6.4 11.9 9.6 13C13.3 9.1 16.7 5.4 20.3 1.7L20.3 1.7Z" fill="#1a1a1a" fill-rule="evenodd"/></g><g transform="matrix(1 0 0 1 82.1 142.1)"><path d="M22.4 2.4C18.3 1.6 14.3 0.7 10.7 0C7.1 3.8 3.5 7.5 0 11.4C3.5 12.5 7.2 13.6 11.2 14.6C14.9 10.5 18.6 6.5 22.4 2.4L22.4 2.4Z" fill="#1a1a1a" fill-rule="evenodd"/></g><g transform="matrix(1 0 0 1 95.5 144.6)"><path d="M24.8 2.7C20.1 1.9 15.4 1.2 11.3 0C7.5 4.2 3.6 8.4 0 12.6C4 13.7 8.3 14.9 12.7 16.1C16.8 11.5 20.7 7.1 24.8 2.7L24.8 2.7Z" fill="#1a1a1a" fill-rule="evenodd"/></g><g transform="matrix(1 0 0 1 110.3 147.9)"><path d="M27.9 3.3C22.3 2.1 17.2 1.1 12.4 0C8.2 4.5 4.1 9.1 0 13.8C5 15.2 9.6 16.9 15 18.2C19.3 13.2 23.7 8.2 27.9 3.3Z" fill="#1a1a1a" fill-rule="evenodd"/></g><g transform="matrix(1 0 0 1 127.7 152.1)"><path d="M31.1 3.7C24.6 2.5 18.8 1.3 13 0C8.7 5 4.3 10 0 15C5.4 16.8 11.2 18.5 17.2 20.3C22 14.5 26.5 9.1 31.1 3.7Z" fill="#1a1a1a" fill-rule="evenodd"/></g><g transform="matrix(1 0 0 1 344.4 117.5)"><path d="M29.5 9.6C25.4 6.3 21.4 3 17.8 0C11.8 3.3 6 6.5 0 10C3.3 13.5 6.6 17.1 10.6 20.8C17 17 23.4 13.2 29.5 9.6L29.5 9.6Z" fill="#1a1a1a" fill-rule="evenodd"/></g><g transform="matrix(1 0 0 1 161 115.9)"><path d="M12 4.5C10.3 2.8 8.7 1.3 7.1 0C4.8 1.6 2.4 3.3 0 5C1.5 6.5 2.9 8.2 4.4 10.1C6.9 8.1 9.5 6.3 12 4.5L12 4.5Z" fill="#1a1a1a" fill-rule="evenodd"/></g><g transform="matrix(1 0 0 1 100.3 56.9)"><path d="M8.2 3C7.6 2 7 1 6.5 0C4.4 1.7 2.2 3.6 0 5.4C0.3 6.5 0.8 7.6 1.4 8.7C3.6 6.8 6 4.9 8.2 3L8.2 3Z" fill="#1a1a1a" fill-rule="evenodd"/></g><g transform="matrix(1 0 0 1 412.3 216.2)"><path d="M33 11.2C27.9 7.2 23.1 3.4 18.4 0C12.3 1.9 6.3 4.1 0 6.2C4.6 9.9 9 13.9 13.7 18.2C20.2 15.7 26.9 13.5 33 11.2L33 11.2Z" fill="#1a1a1a" fill-rule="evenodd"/></g><g transform="matrix(1 0 0 1 117.8 71.2)"><path d="M5.3 1.6C4.8 1.1 4.4 0.5 4 0C2.7 1 1.3 1.9 0 2.9C0.3 3.5 0.6 4.2 1 4.8C2.4 3.7 3.8 2.7 5.3 1.6L5.3 1.6Z" fill="#1a1a1a" fill-rule="evenodd"/></g><g transform="matrix(1 0 0 1 160.9 46.2)"><path d="M8.7 1.4C7.5 0.9 6.3 0.4 5.2 0C3.5 1.2 1.8 2.4 0 3.6C1 4.2 2 4.7 3.2 5.4C5 4 6.9 2.7 8.7 1.4L8.7 1.4Z" fill="#1a1a1a" fill-rule="evenodd"/></g><g transform="matrix(1 0 0 1 399 89.6)"><path d="M29.3 5.3C24.4 3.4 20 1.6 15.7 0C10.2 2.3 5 4.5 0 6.8C3.8 8.7 7.9 10.7 12.4 13.1C18.3 10.4 23.9 7.7 29.3 5.3Z" fill="#1a1a1a" fill-rule="evenodd"/></g><g transform="matrix(1 0 0 1 143.9 43.3)"><path d="M6 1.1C5.2 0.8 4.7 0.3 4.1 0C2.7 0.9 1.3 1.9 0 2.9C0.5 3.4 0.9 3.9 1.5 4.3C2.9 3.3 4.4 2.2 6 1.1Z" fill="#1a1a1a" fill-rule="evenodd"/></g><g transform="matrix(1 0 0 1 115 36.2)"><path d="M4.3 0.8C3.9 0.5 3.5 0.3 3.1 0C2.1 0.8 1 1.6 0 2.3C0.3 2.6 0.6 2.9 0.9 3.3C2 2.5 3.2 1.6 4.3 0.8Z" fill="#1a1a1a" fill-rule="evenodd"/></g><g transform="matrix(1 0 0 1 42.4 112.5)"><path d="M2.9 1.2C2.7 0.8 2.5 0.4 2.4 0C1.6 0.6 0.8 1.2 0 1.8C0.1 2.2 0.2 2.7 0.3 3.2C1.2 2.5 2 1.9 2.9 1.2Z" fill="#1a1a1a" fill-rule="evenodd"/></g><g transform="matrix(1 0 0 1 427.4 155.2)"><path d="M21.7 4.7C18.2 3 15.5 1.5 12.5 0C8.2 1.2 4.1 2.3 0 3.5C2.5 5 5.4 6.8 8.4 8.5C12.9 7.2 17.3 5.9 21.7 4.7Z" fill="#1a1a1a" fill-rule="evenodd"/></g><g transform="matrix(1 0 0 1 188 38.7)"><path d="M8.5 1C7.3 0.6 6.1 0.4 5 0C3.4 1.1 1.6 2.2 0 3.3C1 3.7 2 4.1 3.1 4.5C4.7 3.4 6.7 2.1 8.5 1Z" fill="#1a1a1a" fill-rule="evenodd"/></g><g transform="matrix(1 0 0 1 146.2 12.3)"><path d="M5.9 0.3C5.2 0.2 4.4 0 3.7 0C2.4 0.8 1.2 1.7 0 2.6C0.7 2.7 1.4 2.8 2.2 3C3.4 2.1 4.7 1.2 5.9 0.3Z" fill="#1a1a1a" fill-rule="evenodd"/></g><g transform="matrix(1 0 0 1 127.7 45.1)"><path d="M5.4 0.6C4.8 0.4 4.1 0.2 3.4 0C2.4 0.8 1.1 1.6 0 2.4C0.6 2.6 1.2 2.8 1.9 3.1C3.1 2.2 4.2 1.4 5.5 0.6L5.4 0.6Z" fill="#1a1a1a" fill-rule="evenodd"/></g><g transform="matrix(1 0 0 1 13.6 134.2)"><path d="M2.4 0.9C2.2 0.6 2.1 0.3 1.9 0C1.2 0.4 0.6 0.9 0 1.3C0.1 1.6 0.2 1.9 0.4 2.2C1.1 1.8 1.8 1.3 2.4 0.9Z" fill="#1a1a1a" fill-rule="evenodd"/></g><g transform="matrix(1 0 0 1 111.6 62.8)"><path d="M5.2 0.7C4.5 0.4 3.8 0.2 3.2 0C2.2 0.7 1.1 1.4 0 2.1C0.6 2.3 1.3 2.6 1.9 2.9C3 2.1 4.1 1.4 5.2 0.7Z" fill="#1a1a1a" fill-rule="evenodd"/></g><g transform="matrix(1 0 0 1 214.9 71.9)"><path d="M9.9 1.2C8.4 0.8 6.9 0.4 5.5 0C3.7 1 1.9 1.9 0 2.9C1.4 3.3 2.8 3.7 4.2 4.1C6 3.1 8 2.1 9.9 1.2Z" fill="#1a1a1a" fill-rule="evenodd"/></g><g transform="matrix(1 0 0 1 8.8 127.4)"><path d="M2.4 0.9C2.2 0.5 2 0.3 1.8 0C1.2 0.4 0.6 0.8 0 1.3C0.2 1.6 0.4 1.8 0.6 2.2C1.2 1.7 1.8 1.3 2.4 0.9Z" fill="#1a1a1a" fill-rule="evenodd"/></g><g transform="matrix(1 0 0 1 95.2 78.3)"><path d="M4.7 0.8C4.1 0.5 3.4 0.2 2.8 0C1.9 0.7 1 1.3 0 1.9C0.5 2.2 1.1 2.5 1.7 2.8C2.7 2.1 3.7 1.5 4.7 0.8L4.7 0.8Z" fill="#1a1a1a" fill-rule="evenodd"/></g><g transform="matrix(1 0 0 1 104 52.4)"><path d="M4.2 0.3C3.6 0.2 3.1 0.1 2.5 0C1.7 0.6 0.8 1.2 0 1.7C0.5 1.8 1 2 1.5 2.1C2.4 1.5 3.3 0.9 4.2 0.3L4.2 0.3Z" fill="#1a1a1a" fill-rule="evenodd"/></g><g transform="matrix(1 0 0 1 493.7 192.2)"><path d="M28.4 4.4C23.8 3.1 18.9 1.4 14 0C9.5 1 4.6 1.7 0 2.5C4.4 3.9 9.2 5.4 13.6 7C18.7 6.1 23.5 5.3 28.4 4.4L28.4 4.4Z" fill="#1a1a1a" fill-rule="evenodd"/></g><g transform="matrix(1 0 0 1 163.9 20.9)"><path d="M6.2 0C5.1 0 4.2 0.1 3.3 0.1C2.3 0.7 1.1 1.4 0 2.2C0.9 2.2 1.7 2.2 2.6 2.2C3.8 1.5 4.9 0.7 6.2 0L6.2 0Z" fill="#1a1a1a" fill-rule="evenodd"/></g><g transform="matrix(1 0 0 1 21.2 131.5)"><path d="M2.6 0.7C2.2 0.5 1.9 0.2 1.7 0C1.2 0.4 0.5 0.8 0 1.1C0.2 1.4 0.5 1.6 0.7 1.8C1.3 1.4 1.9 1.1 2.6 0.7L2.6 0.7Z" fill="#1a1a1a" fill-rule="evenodd"/></g><g transform="matrix(1 0 0 1 282.4 106.4)"><path d="M13.5 1.4C11.2 0.8 8.8 0.5 6.4 0C4.1 0.8 2 1.5 0 2.3C2.1 2.7 4.4 3.2 6.8 3.8C9 3 11.3 2.2 13.5 1.4L13.5 1.4Z" fill="#1a1a1a" fill-rule="evenodd"/></g><g transform="matrix(1 0 0 1 273.2 145.4)"><path d="M14.9 3.7C12.8 2.4 10.8 1.1 8.7 0C5.9 1.1 2.9 2.4 0 3.6C1.9 4.9 3.8 6.1 5.7 7.6C8.9 6.1 11.9 4.9 14.9 3.7L14.9 3.7Z" fill="#1a1a1a" fill-rule="evenodd"/></g><g transform="matrix(1 0 0 1 14.2 141)"><path d="M3 1.6C2.8 1.1 2.7 0.5 2.5 0C1.7 0.6 0.9 1.2 0 1.9C0.1 2.5 0.2 3.1 0.3 3.7C1.2 3 2.1 2.3 3 1.6L3 1.6Z" fill="#1a1a1a" fill-rule="evenodd"/></g><g transform="matrix(1 0 0 1 225.6 95.1)"><path d="M12.7 2.9C10.8 1.9 9.1 0.9 7.5 0C5.1 1.4 2.5 2.8 0 4.2C1.6 5.2 3 6.4 4.8 7.4C7.5 5.9 10.1 4.4 12.7 2.9Z" fill="#1a1a1a" fill-rule="evenodd"/></g></svg>
