<svg xmlns="http://www.w3.org/2000/svg" viewBox="0 0 24 24"><g transform="matrix(1 0 0 1 3 1.5)"><path d="M11.615 0.095C11.916 0.263 12.064 0.615 11.974 0.947L9.982 8.25L17.25 8.25C17.549 8.25 17.819 8.427 17.938 8.701C18.057 8.975 18.002 9.293 17.798 9.512L7.298 20.762C7.063 21.014 6.686 21.073 6.385 20.905C6.084 20.737 5.936 20.385 6.026 20.053L8.018 12.75L0.75 12.75C0.451 12.75 0.181 12.573 0.062 12.299C-0.057 12.025 -0.002 11.707 0.202 11.488L10.702 0.238C10.937 -0.014 11.314 -0.073 11.615 0.095Z" fill="#ffffff" fill-rule="evenodd"/></g></svg>
