<svg xmlns="http://www.w3.org/2000/svg" viewBox="0 0 24 24"><g transform="matrix(1 0 0 1 2.25 2.25)"><path d="M4.5 0C4.914 0 5.25 0.336 5.25 0.75L5.25 2.25L14.25 2.25L14.25 0.75C14.25 0.336 14.586 0 15 0C15.414 0 15.75 0.336 15.75 0.75L15.75 2.25L16.5 2.25C18.157 2.25 19.5 3.593 19.5 5.25L19.5 16.5C19.5 18.157 18.157 19.5 16.5 19.5L3 19.5C1.343 19.5 0 18.157 0 16.5L0 5.25C0 3.593 1.343 2.25 3 2.25L3.75 2.25L3.75 0.75C3.75 0.336 4.086 0 4.5 0ZM18 9C18 8.172 17.328 7.5 16.5 7.5L3 7.5C2.172 7.5 1.5 8.172 1.5 9L1.5 16.5C1.5 17.328 2.172 18 3 18L16.5 18C17.328 18 18 17.328 18 16.5L18 9Z" fill="#999999" fill-rule="evenodd"/></g></svg>
