<svg xmlns="http://www.w3.org/2000/svg" viewBox="0 0 30 30"><defs><clipPath id="csend1"><rect width="24.98976707458496" height="24.83537483215332"/></clipPath><clipPath id="csend2"><rect width="24.98976707458496" height="24.83537483215332"/></clipPath></defs><path d="M0 0L30 0L30 30L0 30L0 0Z" fill="#000000" fill-opacity="0"/><g transform="matrix(1 0 0 1 2.5 2.5)"><g clip-path="url(#csend2)"><g transform="matrix(1 0 0 1 0 0)"><g clip-path="url(#csend1)"><g transform="matrix(1 0 0 1 0 0)"><path d="M24.284 0.723C23.659 0.084 22.734 -0.152 21.872 0.098L1.759 5.909C0.849 6.162 0.204 6.883 0.031 7.798C-0.147 8.73 0.473 9.915 1.283 10.41L7.572 14.25C8.217 14.645 9.049 14.547 9.583 14.012L16.784 6.81C17.147 6.434 17.747 6.434 18.109 6.81C18.472 7.172 18.472 7.76 18.109 8.135L10.896 15.337C10.361 15.872 10.261 16.702 10.654 17.348L14.497 23.66C14.947 24.409 15.722 24.835 16.572 24.835C16.672 24.835 16.784 24.835 16.884 24.822C17.859 24.698 18.634 24.034 18.922 23.097L24.884 3.135C25.147 2.285 24.909 1.36 24.284 0.723Z" fill="#ffffff"/></g><g transform="matrix(1 0 0 1 0.326 14.9285)" opacity="0.4"><path d="M8.988 6.499C9.353 6.865 9.353 7.459 8.988 7.826L7.281 9.532C7.098 9.715 6.858 9.807 6.618 9.807C6.378 9.807 6.138 9.715 5.956 9.532C5.59 9.165 5.59 8.573 5.956 8.207L7.662 6.499C8.028 6.134 8.622 6.134 8.988 6.499ZM8.009 1.764C8.374 2.13 8.374 2.724 8.009 3.09L6.301 4.797C6.119 4.981 5.879 5.072 5.639 5.072C5.399 5.072 5.159 4.981 4.976 4.797C4.61 4.431 4.61 3.838 4.976 3.472L6.682 1.764C7.049 1.399 7.642 1.399 8.009 1.764ZM3.307 0.274C3.672 0.64 3.672 1.234 3.307 1.6L1.6 3.306C1.417 3.49 1.177 3.581 0.937 3.581C0.697 3.581 0.457 3.49 0.275 3.306C-0.092 2.94 -0.092 2.348 0.275 1.981L1.981 0.274C2.347 -0.091 2.941 -0.091 3.307 0.274Z" fill="#ffffff"/></g></g></g></g></g></svg>
