<svg xmlns="http://www.w3.org/2000/svg" viewBox="0 0 34 34"><g transform="matrix(1 0 0 1 4.25 2.125)"><path d="M25.5 6.906C25.5 10.72 19.792 13.813 12.75 13.813C5.708 13.813 0 10.72 0 6.906C0 3.092 5.708 0 12.75 0C19.792 0 25.5 3.092 25.5 6.906Z" fill="#a685fa"/><path d="M12.75 15.938C16.554 15.938 20.103 15.107 22.778 13.658C23.755 13.129 24.685 12.473 25.464 11.697C25.488 11.869 25.5 12.043 25.5 12.219C25.5 16.033 19.792 19.125 12.75 19.125C5.708 19.125 0 16.033 0 12.219C0 12.043 0.012 11.869 0.036 11.697C0.815 12.473 1.745 13.129 2.722 13.658C5.397 15.107 8.946 15.938 12.75 15.938Z" fill="#a685fa"/><path d="M12.75 21.25C16.554 21.25 20.103 20.419 22.778 18.971C23.755 18.441 24.685 17.785 25.464 17.01C25.488 17.182 25.5 17.356 25.5 17.531C25.5 21.345 19.792 24.437 12.75 24.437C5.708 24.437 0 21.345 0 17.531C0 17.356 0.012 17.182 0.036 17.01C0.815 17.785 1.745 18.441 2.722 18.971C5.397 20.419 8.946 21.25 12.75 21.25Z" fill="#a685fa"/><path d="M12.75 26.562C16.554 26.562 20.103 25.732 22.778 24.283C23.755 23.754 24.685 23.098 25.464 22.322C25.488 22.494 25.5 22.668 25.5 22.844C25.5 26.658 19.792 29.75 12.75 29.75C5.708 29.75 0 26.658 0 22.844C0 22.668 0.012 22.494 0.036 22.322C0.815 23.098 1.745 23.754 2.722 24.283C5.397 25.732 8.946 26.562 12.75 26.562Z" fill="#a685fa"/></g></svg>
